<svg xmlns="http://www.w3.org/2000/svg" width="512" height="512" style="shape-rendering:geometricPrecision;text-rendering:geometricPrecision;image-rendering:optimizeQuality;fill-rule:evenodd;clip-rule:evenodd"><path d="M222.5 39.5c2.7-.2 5.4 0 8 .5 50.7 29 84.9 71.6 102.5 127.5 4-15 3-29.7-3-44-.8-9.2 3.3-12.7 12.5-10.5 56.8 58.7 80.3 128.9 70.5 210.5C398.7 394.8 357.9 444 290.5 471c-7.2 2.1-11.5-.4-13-7.5l13.5-27c19.7-52 13.7-100.6-18-146 1.9 30-6.1 57-24 81-4.7 4-9.3 4-14 0-1.3-8.2-2-16.6-2-25-.4-4.2-1.4-8.2-3-12a273 273 0 0 1-16 50 90.1 90.1 0 0 0 14 75c2 10.3-2.2 14.1-12.5 11.5-57.8-16.5-96-53.3-114.5-110.5-11.8-46.8-5-90.8 20-132 10.4-23 17-47 20-72 3.8-4.3 8.3-5.1 13.5-2.5a146.2 146.2 0 0 1 21 35.5c20.6-31 33.8-65 39.5-102 1.9-14.6 3.2-29.3 4-44 1.4-1.2 2.5-2.5 3.5-4Z" style="opacity:.95"/><path fill="#f6655d" d="M234.5 62.5a197.9 197.9 0 0 1 87.5 133c2.4 4.7 6.3 6.2 11.5 4.5a79.2 79.2 0 0 0 19.5-49.5 226 226 0 0 1 39 190 174.4 174.4 0 0 1-85.5 105l-1-1a166.1 166.1 0 0 0-10.5-152c-9.3-14-20.1-26.9-32.5-38.5-7.3-3.5-12-1.3-14 6.5a100.5 100.5 0 0 1 .5 77c-3.4-13.4-9-25.8-17-37-5-6.6-10-6.6-15 0-.8 26.3-6.8 51.3-18 75a116 116 0 0 0-4 44 246 246 0 0 0 7 30c-63.2-29.4-92.9-79-89-149 1.6-14.2 5.3-27.9 11-41a267.2 267.2 0 0 0 30-76 143 143 0 0 1 11 31c3.5 4.1 7.7 5 12.5 2.5a282.5 282.5 0 0 0 57-154.5Z" style="opacity:1"/></svg>