<svg xmlns="http://www.w3.org/2000/svg" width="512" height="512" style="shape-rendering:geometricPrecision;text-rendering:geometricPrecision;image-rendering:optimizeQuality;fill-rule:evenodd;clip-rule:evenodd"><path d="M222.5 39.5c2.7-.2 5.4 0 8 .5 50.7 29 84.9 71.6 102.5 127.5 4-15 3-29.7-3-44-.8-9.2 3.3-12.7 12.5-10.5 56.8 58.7 80.3 128.9 70.5 210.5C398.7 394.8 357.9 444 290.5 471c-7.2 2.1-11.5-.4-13-7.5l13.5-27c19.7-52 13.7-100.6-18-146 1.9 30-6.1 57-24 81-4.7 4-9.3 4-14 0-1.3-8.2-2-16.6-2-25-.4-4.2-1.4-8.2-3-12a273 273 0 0 1-16 50 90.1 90.1 0 0 0 14 75c2 10.3-2.2 14.1-12.5 11.5-57.8-16.5-96-53.3-114.5-110.5-11.8-46.8-5-90.8 20-132 10.4-23 17-47 20-72 3.8-4.3 8.3-5.1 13.5-2.5a146.2 146.2 0 0 1 21 35.5c20.6-31 33.8-65 39.5-102 1.9-14.6 3.2-29.3 4-44 1.4-1.2 2.5-2.5 3.5-4Zm84 405c23.1-61 15.3-117.7-23.5-170-6.5-7.8-13.7-15-21.5-21.5-7.2-2-11.5.4-13 7.5 7.5 19.5 9.4 39.5 5.5 60-1 5.5-2.7 10.9-5 16a100 100 0 0 0-18-38 9.4 9.4 0 0 0-11.5-1.5 7.7 7.7 0 0 0-3.5 5.5c0 11.8-1.3 23.5-4 35-3.9 13.6-8.5 27-14 40a126 126 0 0 0 0 59c1.1 4 2.6 7.8 4.5 11.5a138 138 0 0 1-84.5-90.5c-8.9-33-6.9-65.4 6-97a267 267 0 0 0 30-76 143 143 0 0 1 11 31c3.8 3.3 8 3.8 12.5 1.5 34.5-45.6 53.7-97 57.5-154.5A208 208 0 0 1 323.5 199c8.3 3.4 14.2 1 17.5-7.5 7-12.9 11.3-25.9 13-39a226.7 226.7 0 0 1 39 183 171.6 171.6 0 0 1-86.5 109Z" style="opacity:.934"/></svg>